<mxfile host="app.diagrams.net" modified="2020-09-26T13:18:06.602Z" agent="5.0 (Windows NT 10.0; Win64; x64) AppleWebKit/537.36 (KHTML, like Gecko) Chrome/85.0.4183.121 Safari/537.36" etag="ri8Kpyy_AFNbevNKTO9u" version="13.7.5" type="github">
  <diagram id="f7qSFR5gJHRtNvawFRBQ" name="Page-1">
    <mxGraphModel dx="1422" dy="794" grid="1" gridSize="10" guides="1" tooltips="1" connect="1" arrows="1" fold="1" page="1" pageScale="1" pageWidth="1169" pageHeight="827" math="0" shadow="0">
      <root>
        <mxCell id="0" />
        <mxCell id="1" parent="0" />
        <mxCell id="LRMJ2YVuXZw8DP-xjl8w-2" value="API" style="shape=cube;whiteSpace=wrap;html=1;boundedLbl=1;backgroundOutline=1;darkOpacity=0.05;darkOpacity2=0.1;" vertex="1" parent="1">
          <mxGeometry x="240" y="300" width="120" height="80" as="geometry" />
        </mxCell>
        <mxCell id="LRMJ2YVuXZw8DP-xjl8w-6" style="edgeStyle=orthogonalEdgeStyle;rounded=0;orthogonalLoop=1;jettySize=auto;html=1;entryX=0.16;entryY=0.55;entryDx=0;entryDy=0;entryPerimeter=0;startArrow=classic;startFill=1;" edge="1" parent="1" source="LRMJ2YVuXZw8DP-xjl8w-3" target="LRMJ2YVuXZw8DP-xjl8w-5">
          <mxGeometry relative="1" as="geometry">
            <Array as="points">
              <mxPoint x="560" y="475" />
            </Array>
          </mxGeometry>
        </mxCell>
        <mxCell id="LRMJ2YVuXZw8DP-xjl8w-9" style="edgeStyle=orthogonalEdgeStyle;rounded=0;orthogonalLoop=1;jettySize=auto;html=1;entryX=0;entryY=0;entryDx=120;entryDy=50;entryPerimeter=0;startArrow=classic;startFill=1;" edge="1" parent="1" source="LRMJ2YVuXZw8DP-xjl8w-3" target="LRMJ2YVuXZw8DP-xjl8w-2">
          <mxGeometry relative="1" as="geometry" />
        </mxCell>
        <mxCell id="LRMJ2YVuXZw8DP-xjl8w-3" value="Web Server" style="shape=cube;whiteSpace=wrap;html=1;boundedLbl=1;backgroundOutline=1;darkOpacity=0.05;darkOpacity2=0.1;" vertex="1" parent="1">
          <mxGeometry x="500" y="310" width="120" height="80" as="geometry" />
        </mxCell>
        <mxCell id="LRMJ2YVuXZw8DP-xjl8w-7" style="edgeStyle=orthogonalEdgeStyle;rounded=0;orthogonalLoop=1;jettySize=auto;html=1;entryX=0.875;entryY=0.5;entryDx=0;entryDy=0;entryPerimeter=0;startArrow=classic;startFill=1;exitX=0;exitY=0;exitDx=70;exitDy=80;exitPerimeter=0;" edge="1" parent="1" source="LRMJ2YVuXZw8DP-xjl8w-4" target="LRMJ2YVuXZw8DP-xjl8w-5">
          <mxGeometry relative="1" as="geometry">
            <Array as="points">
              <mxPoint x="900" y="470" />
            </Array>
          </mxGeometry>
        </mxCell>
        <mxCell id="LRMJ2YVuXZw8DP-xjl8w-4" value="Web Browser" style="shape=cube;whiteSpace=wrap;html=1;boundedLbl=1;backgroundOutline=1;darkOpacity=0.05;darkOpacity2=0.1;" vertex="1" parent="1">
          <mxGeometry x="830" y="310" width="120" height="80" as="geometry" />
        </mxCell>
        <mxCell id="LRMJ2YVuXZw8DP-xjl8w-5" value="Internet Infrastructure" style="ellipse;shape=cloud;whiteSpace=wrap;html=1;" vertex="1" parent="1">
          <mxGeometry x="620" y="420" width="180" height="100" as="geometry" />
        </mxCell>
        <mxCell id="LRMJ2YVuXZw8DP-xjl8w-8" value="User Database Server" style="shape=cylinder3;whiteSpace=wrap;html=1;boundedLbl=1;backgroundOutline=1;size=15;" vertex="1" parent="1">
          <mxGeometry x="440" y="360" width="100" height="80" as="geometry" />
        </mxCell>
        <mxCell id="LRMJ2YVuXZw8DP-xjl8w-10" value="User Database API" style="shape=cylinder3;whiteSpace=wrap;html=1;boundedLbl=1;backgroundOutline=1;size=15;" vertex="1" parent="1">
          <mxGeometry x="200" y="360" width="100" height="80" as="geometry" />
        </mxCell>
        <mxCell id="LRMJ2YVuXZw8DP-xjl8w-13" value="Data Interchange" style="shape=flexArrow;endArrow=classic;startArrow=classic;html=1;width=60;" edge="1" parent="1">
          <mxGeometry width="50" height="50" relative="1" as="geometry">
            <mxPoint x="660" y="360" as="sourcePoint" />
            <mxPoint x="775" y="360" as="targetPoint" />
          </mxGeometry>
        </mxCell>
      </root>
    </mxGraphModel>
  </diagram>
</mxfile>
